<?xml version="1.0" encoding="UTF-8"?>
<svg width="1200" height="800" xmlns="http://www.w3.org/2000/svg">
    <defs>
        <style>
            .axis { stroke: black; stroke-width: 2; }
            .grid { stroke: lightgray; stroke-width: 0.5; stroke-dasharray: 2,2; }
            .line-cs { stroke: blue; stroke-width: 2; fill: none; }
            .line-cb { stroke: red; stroke-width: 2; fill: none; }
            .line-sat { stroke: green; stroke-width: 1.5; fill: none; stroke-dasharray: 5,5; }
            .line-min { stroke: black; stroke-width: 1; fill: none; stroke-dasharray: 3,3; }
            .hypoxic { stroke: orange; stroke-width: 1.5; stroke-dasharray: 4,4; }
            .label { font-family: Arial, sans-serif; font-size: 12px; }
            .title { font-family: Arial, sans-serif; font-size: 18px; font-weight: bold; }
            .legend { font-family: Arial, sans-serif; font-size: 11px; }
        </style>
    </defs>

    <!-- Background -->
    <rect width="1200" height="800" fill="white"/>

    <!-- Title -->
    <text x="600.0" y="25" text-anchor="middle" class="title">
        Dissolved Oxygen Time Series - Synthetic 1-Year Simulation
    </text>

    <!-- Grid lines -->
    <line x1="60" y1="740.0" x2="1160" y2="740.0" class="grid"/>
    <text x="50" y="744.0" text-anchor="end" class="label">0</text>
    <line x1="60" y1="646.6666666666666" x2="1160" y2="646.6666666666666" class="grid"/>
    <text x="50" y="650.6666666666666" text-anchor="end" class="label">2</text>
    <line x1="60" y1="553.3333333333334" x2="1160" y2="553.3333333333334" class="grid"/>
    <text x="50" y="557.3333333333334" text-anchor="end" class="label">4</text>
    <line x1="60" y1="460.0" x2="1160" y2="460.0" class="grid"/>
    <text x="50" y="464.0" text-anchor="end" class="label">6</text>
    <line x1="60" y1="366.6666666666667" x2="1160" y2="366.6666666666667" class="grid"/>
    <text x="50" y="370.6666666666667" text-anchor="end" class="label">8</text>
    <line x1="60" y1="273.33333333333337" x2="1160" y2="273.33333333333337" class="grid"/>
    <text x="50" y="277.33333333333337" text-anchor="end" class="label">10</text>
    <line x1="60" y1="180.0" x2="1160" y2="180.0" class="grid"/>
    <text x="50" y="184.0" text-anchor="end" class="label">12</text>
    <line x1="60" y1="86.66666666666663" x2="1160" y2="86.66666666666663" class="grid"/>
    <text x="50" y="90.66666666666663" text-anchor="end" class="label">14</text>
    <line x1="60.0" y1="40" x2="60.0" y2="740" class="grid"/>
    <text x="60.0" y="760" text-anchor="middle" class="label">Jan</text>
    <line x1="150.41095890410958" y1="40" x2="150.41095890410958" y2="740" class="grid"/>
    <text x="150.41095890410958" y="760" text-anchor="middle" class="label">Feb</text>
    <line x1="240.82191780821915" y1="40" x2="240.82191780821915" y2="740" class="grid"/>
    <text x="240.82191780821915" y="760" text-anchor="middle" class="label">Mar</text>
    <line x1="334.24657534246575" y1="40" x2="334.24657534246575" y2="740" class="grid"/>
    <text x="334.24657534246575" y="760" text-anchor="middle" class="label">Apr</text>
    <line x1="424.6575342465754" y1="40" x2="424.6575342465754" y2="740" class="grid"/>
    <text x="424.6575342465754" y="760" text-anchor="middle" class="label">May</text>
    <line x1="518.0821917808219" y1="40" x2="518.0821917808219" y2="740" class="grid"/>
    <text x="518.0821917808219" y="760" text-anchor="middle" class="label">Jun</text>
    <line x1="608.4931506849315" y1="40" x2="608.4931506849315" y2="740" class="grid"/>
    <text x="608.4931506849315" y="760" text-anchor="middle" class="label">Jul</text>
    <line x1="698.904109589041" y1="40" x2="698.904109589041" y2="740" class="grid"/>
    <text x="698.904109589041" y="760" text-anchor="middle" class="label">Aug</text>
    <line x1="792.3287671232877" y1="40" x2="792.3287671232877" y2="740" class="grid"/>
    <text x="792.3287671232877" y="760" text-anchor="middle" class="label">Sep</text>
    <line x1="882.7397260273973" y1="40" x2="882.7397260273973" y2="740" class="grid"/>
    <text x="882.7397260273973" y="760" text-anchor="middle" class="label">Oct</text>
    <line x1="976.1643835616438" y1="40" x2="976.1643835616438" y2="740" class="grid"/>
    <text x="976.1643835616438" y="760" text-anchor="middle" class="label">Nov</text>
    <line x1="1066.5753424657535" y1="40" x2="1066.5753424657535" y2="740" class="grid"/>
    <text x="1066.5753424657535" y="760" text-anchor="middle" class="label">Dec</text>

    <!-- X axis -->
    <line x1="60" y1="740"
          x2="1160" y2="740" class="axis"/>
    <text x="600.0" y="790" text-anchor="middle" class="label">Month</text>

    <!-- Y axis -->
    <line x1="60" y1="40"
          x2="60" y2="740" class="axis"/>
    <text x="20" y="400.0" text-anchor="middle" class="label" transform="rotate(-90, 20, 400.0)">
        DO Concentration (mg/L)
    </text>

    <!-- Hypoxic threshold -->
    <line x1="60" y1="646.6666666666666"
          x2="1160" y2="646.6666666666666" class="hypoxic"/>

    <path d="M 60.0,102.23692316385154 L 63.013698630136986,102.52740598019147 L 66.02739726027397,102.84222843218333 L 69.04109589041096,103.18129723114009 L 72.05479452054794,103.54451190365887 L 75.06849315068493,103.93176482139336 L 78.08219178082192,104.3429412329466 L 81.0958904109589,104.77791929787384 L 84.10958904109589,105.2365701227867 L 87.12328767123287,105.71875779954746 L 90.13698630136986,106.22433944554086 L 93.15068493150685,106.75316524601419 L 96.16438356164383,107.30507849846936 L 99.17808219178082,107.87991565909863 L 102.1917808219178,108.47750639124524 L 105.20547945205479,109.0976736158782 L 108.21917808219177,109.74023356406462 L 111.23287671232876,110.40499583142412 L 114.24657534246575,111.09176343455022 L 117.26027397260273,111.80033286938055 L 120.27397260273972,112.5304941714993 L 123.2876712328767,113.28203097835433 L 126.3013698630137,114.05472059337058 L 129.3150684931507,114.84833405193888 L 132.32876712328766,115.66263618926394 L 135.34246575342465,116.49738571004843 L 138.35616438356163,117.35233525999377 L 141.36986301369865,118.22723149909734 L 144.3835616438356,119.1218151767215 L 147.39726027397262,120.03582120841588 L 150.41095890410958,120.96897875446746 L 153.4246575342466,121.92101130015601 L 156.43835616438355,122.8916367376919 L 159.45205479452056,123.88056744981009 L 162.46575342465752,124.88751039499766 L 165.47945205479454,125.91216719432828 L 168.4931506849315,126.95423421987869 L 171.5068493150685,128.01340268469926 L 174.52054794520546,129.0893587343154 L 177.53424657534248,130.18178353972826 L 180.54794520547944,131.2903533918918 L 183.56164383561645,132.41473979763373 L 186.5753424657534,133.55460957699609 L 189.58904109589042,134.7096249619625 L 192.6027397260274,135.87944369654747 L 195.61643835616437,137.06371913821283 L 198.63013698630138,138.2621003605866 L 201.64383561643837,139.47423225744956 L 204.65753424657532,140.6997556479605 L 207.67123287671234,141.93830738308998 L 210.6849315068493,143.18952045322862 L 213.6986301369863,144.45302409694045 L 216.7123287671233,145.7284439108272 L 219.72602739726025,147.0154019604721 L 222.73972602739727,148.31351689243036 L 225.75342465753423,149.62240404723207 L 228.76712328767124,150.94167557336505 L 231.78082191780823,152.2709405422038 L 234.7945205479452,153.6098050638501 L 237.8082191780822,154.95787240385152 L 240.82191780821915,156.31474310076123 L 243.83561643835617,157.680015084508 L 246.84931506849315,159.0532837955384 L 249.86301369863014,160.43414230469546 L 252.87671232876713,161.8221814338018 L 255.8904109589041,163.21698987690684 L 258.9041095890411,164.6181543221669 L 261.9178082191781,166.0252595743168 L 264.93150684931504,167.43788867770263 L 267.94520547945206,168.8556230398342 L 270.95890410958907,170.27804255542253 L 273.972602739726,171.70472573086704 L 276.986301369863,173.13524980915236 L 280.0,174.5691908951211 L 283.013698630137,176.00612408108213 L 286.027397260274,177.44562357272116 L 289.04109589041093,178.8872628152718 L 292.05479452054794,180.33061461991338 L 295.06849315068496,181.77525129035598 L 298.0821917808219,183.2207447495765 L 301.0958904109589,184.66666666666663 L 304.1095890410959,186.11258858375675 L 307.1232876712329,187.5580820429774 L 310.1369863013699,189.00271871342 L 313.1506849315068,190.44607051806156 L 316.16438356164383,191.8877097606122 L 319.17808219178085,193.32720925225124 L 322.1917808219178,194.76414243821228 L 325.2054794520548,196.19808352418102 L 328.2191780821918,197.62860760246633 L 331.23287671232873,199.05529077791073 L 334.24657534246575,200.47771029349929 L 337.26027397260276,201.89544465563063 L 340.2739726027397,203.30807375901657 L 343.28767123287673,204.71517901116647 L 346.3013698630137,206.1163434564263 L 349.31506849315065,207.51115189953146 L 352.3287671232877,208.89919102863792 L 355.3424657534247,210.28004953779498 L 358.35616438356163,211.65331824882526 L 361.3698630136986,213.01859023257214 L 364.3835616438356,214.37546092948185 L 367.3972602739726,215.72352826948315 L 370.4109589041096,217.0623927911297 L 373.4246575342466,218.39165775996844 L 376.43835616438355,219.7109292861013 L 379.4520547945205,221.0198164409029 L 382.4657534246576,222.31793137286115 L 385.47945205479454,223.60488942250618 L 388.4931506849315,224.88030923639303 L 391.50684931506845,226.14381288010475 L 394.5205479452055,227.3950259502435 L 397.5342465753425,228.63357768537293 L 400.54794520547944,229.85910107588387 L 403.56164383561645,231.0712329727467 L 406.5753424657534,232.26961419512054 L 409.5890410958904,233.45388963678596 L 412.60273972602744,234.62370837137087 L 415.6164383561644,235.77872375633729 L 418.63013698630135,236.91859353569959 L 421.6438356164383,238.04297994144162 L 424.6575342465754,239.15154979360506 L 427.67123287671234,240.2439745990181 L 430.6849315068493,241.3199306486341 L 433.6986301369863,242.37909911345469 L 436.71232876712327,243.4211661390051 L 439.7260273972603,244.4458229383357 L 442.7397260273973,245.45276588352328 L 445.75342465753425,246.44169659564153 L 448.7671232876712,247.4123220331773 L 451.7808219178082,248.3643545788659 L 454.79452054794524,249.29751212491738 L 457.8082191780822,250.21151815661176 L 460.82191780821915,251.10610183423603 L 463.83561643835617,251.9809980733395 L 466.8493150684931,252.835947623285 L 469.86301369863014,253.67069714406944 L 472.87671232876716,254.48499928139455 L 475.8904109589041,255.27861273996285 L 478.90410958904107,256.05130235497904 L 481.9178082191781,256.8028391618342 L 484.9315068493151,257.5330004639528 L 487.94520547945206,258.2415698987831 L 490.958904109589,258.92833750190914 L 493.972602739726,259.5930997692688 L 496.986301369863,260.23565971745506 L 500.0,260.855826942088 L 503.013698630137,261.45341767423474 L 506.027397260274,262.0282548348639 L 509.04109589041093,262.5801680873192 L 512.054794520548,263.10899388779234 L 515.068493150685,263.6145755337859 L 518.0821917808219,264.09676321054656 L 521.0958904109589,264.5554140354596 L 524.1095890410959,264.9903921003867 L 527.1232876712329,265.40156851193984 L 530.1369863013699,265.7888214296745 L 533.1506849315069,266.15203610219334 L 536.1643835616438,266.49110490115 L 539.1780821917807,266.8059273531419 L 542.1917808219177,267.0964101694819 L 545.2054794520548,267.3624672738424 L 548.2191780821918,267.6040198277615 L 551.2328767123288,267.82099625400434 L 554.2465753424658,268.01333225777296 L 557.2602739726027,268.1809708457587 L 560.2739726027398,268.3238623430297 L 563.2876712328767,268.44196440775164 L 566.3013698630136,268.535242043734 L 569.3150684931506,268.6036676108 L 572.3287671232877,268.6472208329775 L 575.3424657534247,268.66588880450666 L 578.3561643835617,268.65966599366465 L 581.3698630136986,268.6285542444047 L 584.3835616438356,268.5725627758095 L 587.3972602739726,268.49170817935965 L 590.4109589041096,268.3860144140169 L 593.4246575342465,268.25551279912526 L 596.4383561643835,268.1002420051296 L 599.4520547945206,267.9202480421169 L 602.4657534246575,267.71558424618337 L 605.4794520547946,267.48631126362847 L 608.4931506849315,267.2324970329851 L 611.5068493150685,266.95421676488786 L 614.5205479452055,266.65155291978556 L 617.5342465753425,266.32459518350794 L 620.5479452054794,265.9734404406881 L 623.5616438356165,265.5981927460552 L 626.5753424657535,265.19896329359955 L 629.5890410958904,264.7758703836241 L 632.6027397260274,264.329039387689 L 635.6164383561644,263.858602711462 L 638.6301369863013,263.36469975548295 L 641.6438356164384,262.8474768738568 L 644.6575342465754,262.3070873308865 L 647.6712328767123,261.74369125565573 L 650.6849315068494,261.1574555945809 L 653.6986301369863,260.5485540619402 L 656.7123287671233,259.9171670883991 L 659.7260273972603,259.2634817675441 L 662.7397260273972,258.5876918004437 L 665.7534246575342,257.8899974382497 L 668.7671232876712,257.17060542285924 L 671.7808219178082,256.42972892565217 L 674.7945205479452,255.66758748432403 L 677.8082191780823,254.88440693783213 L 680.8219178082192,254.080419359475 L 683.8356164383562,253.25586298812362 L 686.8493150684932,252.4109821576261 L 689.8630136986301,251.54602722440637 L 692.8767123287671,250.6612544932787 L 695.8904109589041,249.75692614149813 L 698.904109589041,248.83331014107233 L 701.9178082191781,247.8906801793554 L 704.9315068493152,246.92931557794873 L 707.945205479452,245.94950120993155 L 710.9589041095891,244.95152741544752 L 713.972602739726,243.93568991566963 L 716.986301369863,242.90228972517275 L 720.0,241.85163306273597 L 723.0136986301369,240.78403126060346 L 726.0273972602739,239.69980067222986 L 729.041095890411,238.59926257853806 L 732.054794520548,237.48274309271676 L 735.068493150685,236.35057306358624 L 738.082191780822,235.20308797756013 L 741.0958904109589,234.04062785923446 L 744.1095890410959,232.86353717062985 L 747.1232876712329,231.67216470912155 L 750.1369863013698,230.4668635040814 L 753.1506849315068,229.2479907122691 L 756.1643835616438,228.01590751199836 L 759.1780821917808,226.7709789961118 L 762.1917808219179,225.51357406379668 L 765.2054794520549,224.24406531127124 L 768.2191780821918,222.9628289213772 L 771.2328767123288,221.67024455210833 L 774.2465753424658,220.3666952241092 L 777.2602739726027,219.05256720717887 L 780.2739726027397,217.7282499058099 L 783.2876712328766,216.39413574379967 L 786.3013698630136,215.05062004796707 L 789.3150684931508,213.6981009310083 L 792.3287671232877,212.3369791735272 L 795.3424657534247,210.9676581052762 L 798.3561643835617,209.59054348563984 L 801.3698630136986,208.2060433834008 L 804.3835616438356,206.81456805581922 L 807.3972602739726,205.41652982706535 L 810.4109589041095,204.0123429660381 L 813.4246575342465,202.6024235636096 L 816.4383561643835,201.18718940932706 L 819.4520547945206,199.76705986761385 L 822.4657534246576,198.34245575350212 L 825.4794520547946,196.91379920793622 L 828.4931506849315,195.48151357268353 L 831.5068493150685,194.04602326488907 L 834.5205479452055,192.60775365131144 L 837.5342465753424,191.16713092227758 L 840.5479452054794,189.72458196539333 L 843.5616438356165,188.28053423904726 L 846.5753424657534,186.8354156457458 L 849.5890410958905,185.3896544053166 L 852.6027397260275,183.943678928017 L 855.6164383561644,182.49791768758757 L 858.6301369863014,181.05279909428612 L 861.6438356164383,179.60875136794016 L 864.6575342465753,178.1662024110558 L 867.6712328767123,176.72557968202193 L 870.6849315068492,175.2873100684443 L 873.6986301369863,173.85181976064996 L 876.7123287671233,172.41953412539726 L 879.7260273972603,170.99087757983136 L 882.7397260273973,169.5662734657194 L 885.7534246575343,168.1461439240062 L 888.7671232876712,166.73090976972378 L 891.7808219178082,165.32099036729528 L 894.7945205479452,163.91680350626814 L 897.8082191780821,162.51876527751404 L 900.8219178082192,161.12728994993256 L 903.8356164383562,159.74278984769353 L 906.8493150684931,158.36567522805728 L 909.8630136986302,156.99635415980617 L 912.8767123287672,155.63523240232507 L 915.8904109589041,154.28271328536619 L 918.9041095890411,152.9391975895337 L 921.917808219178,151.60508342752348 L 924.931506849315,150.2807661261545 L 927.945205479452,148.96663810922416 L 930.958904109589,147.66308878122516 L 933.972602739726,146.37050441195618 L 936.986301369863,145.08926802206213 L 940.0,143.8197592695367 L 943.013698630137,142.56235433722145 L 946.027397260274,141.31742582133506 L 949.0410958904109,140.08534262106434 L 952.054794520548,138.86646982925197 L 955.068493150685,137.66116862421188 L 958.0821917808219,136.46979616270335 L 961.0958904109589,135.29270547409897 L 964.1095890410959,134.13024535577324 L 967.1232876712329,132.98276026974713 L 970.1369863013699,131.8505902406166 L 973.1506849315069,130.7340707547953 L 976.1643835616438,129.63353266110357 L 979.1780821917808,128.54930207272992 L 982.1917808219179,127.48170027059723 L 985.2054794520548,126.43104360816062 L 988.2191780821918,125.39764341766374 L 991.2328767123287,124.38180591788591 L 994.2465753424657,123.3838321234017 L 997.2602739726028,122.40401775538464 L 1000.2739726027397,121.44265315397797 L 1003.2876712328767,120.5000231922611 L 1006.3013698630137,119.5764071918353 L 1009.3150684931506,118.67207884005461 L 1012.3287671232877,117.78730610892694 L 1015.3424657534247,116.92235117570738 L 1018.3561643835616,116.0774703452098 L 1021.3698630136986,115.25291397385831 L 1024.3835616438355,114.4489263955013 L 1027.3972602739727,113.66574584900934 L 1030.4109589041095,112.90360440768131 L 1033.4246575342468,112.16272791047413 L 1036.4383561643835,111.44333589508369 L 1039.4520547945206,110.74564153288964 L 1042.4657534246576,110.06985156578924 L 1045.4794520547944,109.4161662449344 L 1048.4931506849316,108.78477927139318 L 1051.5068493150684,108.17587773875243 L 1054.5205479452054,107.5896420776777 L 1057.5342465753424,107.02624600244678 L 1060.5479452054797,106.4858564594764 L 1063.5616438356165,105.96863357785048 L 1066.5753424657535,105.47473062187134 L 1069.5890410958905,105.00429394564424 L 1072.6027397260273,104.55746294970925 L 1075.6164383561645,104.13437003973377 L 1078.6301369863013,103.73514058727824 L 1081.6438356164383,103.35989289264535 L 1084.6575342465753,103.0087381498256 L 1087.6712328767123,102.68178041354781 L 1090.6849315068494,102.37911656844551 L 1093.6986301369864,102.10083630034819 L 1096.7123287671234,101.84702206970496 L 1099.7260273972602,101.61774908715017 L 1102.7397260273972,101.41308529121648 L 1105.7534246575342,101.23309132820384 L 1108.7671232876712,101.07782053420806 L 1111.7808219178082,100.94731891931644 L 1114.7945205479452,100.84162515397384 L 1117.8082191780823,100.76077055752387 L 1120.8219178082193,100.70477908892872 L 1123.8356164383563,100.67366733966867 L 1126.849315068493,100.66744452882665 L 1129.86301369863,100.68611250035588 L 1132.876712328767,100.72966572253335 L 1135.890410958904,100.79809128959926 L 1138.9041095890411,100.89136892558156 L 1141.9178082191781,101.00947099030361 L 1144.931506849315,101.15236248757469 L 1147.9452054794522,101.32000107556041 L 1150.9589041095892,101.51233707932909 L 1153.972602739726,101.72931350557178 L 1156.986301369863,101.97086605949096" class="line-sat"/>
    <path d="M 60.0,192.11341276623114 L 63.013698630136986,191.77156135215876 L 66.02739726027397,191.40358679711426 L 69.04109589041096,191.0102050624132 L 72.05479452054794,190.59218377394177 L 75.06849315068493,190.15034122305883 L 78.08219178082192,189.6855453010901 L 81.0958904109589,189.1987123687046 L 84.10958904109589,188.69080606154455 L 87.12328767123287,188.16283603355487 L 90.13698630136986,187.6158566395377 L 93.15068493150685,187.05096555852776 L 96.16438356164383,186.4693023596567 L 99.17808219178082,185.87204701225005 L 102.1917808219178,185.26041834195757 L 105.20547945205479,184.63567243479508 L 108.21917808219177,183.99910099103158 L 111.23287671232876,183.35202963092036 L 114.24657534246575,182.69581615432924 L 117.26027397260273,182.03184875638487 L 120.27397260273972,181.36154420129492 L 123.2876712328767,180.68634595656977 L 126.3013698630137,180.00772228990604 L 129.3150684931507,179.32716433104952 L 132.32876712328766,178.64618410098785 L 135.34246575342465,177.9663125108733 L 138.35616438356163,177.2890973331073 L 141.36986301369865,176.6161011470556 L 144.3835616438356,175.94889926189296 L 147.39726027397262,175.28907761910762 L 150.41095890410958,174.63823067721796 L 153.4246575342466,173.99795928127935 L 156.43835616438355,173.36986851977827 L 159.45205479452056,172.75556557152356 L 162.46575342465752,172.15665754516476 L 165.47945205479454,171.5747493139712 L 168.4931506849315,171.0114413485171 L 171.5068493150685,170.46832754991726 L 174.52054794520546,169.94699308626514 L 177.53424657534248,169.44901223491536 L 180.54794520547944,168.975946233253 L 183.56164383561645,168.5293411405803 L 186.5753424657534,168.11072571373882 L 189.58904109589042,167.72160929907295 L 192.6027397260274,167.3634797433216 L 195.61643835616437,167.03780132600036 L 198.63013698630138,166.7460127158165 L 201.64383561643837,166.48952495363199 L 204.65753424657532,166.26971946445292 L 207.67123287671234,166.08794610089979 L 210.6849315068493,165.94552122056882 L 213.6986301369863,165.84372579966134 L 216.7123287671233,165.78380358521042 L 219.72602739726025,165.76695928819606 L 222.73972602739727,165.79435681978566 L 225.75342465753423,165.8671175728922 L 228.76712328767124,165.9863187511861 L 231.78082191780823,166.152991747643 L 234.7945205479452,166.36812057465033 L 237.8082191780822,166.63264034763836 L 240.82191780821915,166.94743582413355 L 243.83561643835617,167.3133400000745 L 246.84931506849315,167.73113276515494 L 249.86301369863014,168.20153961889548 L 252.87671232876713,168.72523044907405 L 255.8904109589041,169.30281837406505 L 258.9041095890411,169.9348586505738 L 261.9178082191781,170.62184764816232 L 264.93150684931504,171.36422189189602 L 267.94520547945206,172.16235717435268 L 270.95890410958907,173.01656773815625 L 273.972602739726,173.92710553011523 L 276.986301369863,174.89415952795878 L 280.0,175.91785514058336 L 283.013698630137,176.9982536826261 L 286.027397260274,178.13535192410507 L 289.04109589041093,179.3290817157681 L 292.05479452054794,180.57930969070912 L 295.06849315068496,181.88583704271537 L 298.0821917808219,183.24839938172363 L 301.0958904109589,184.66666666666663 L 304.1095890410959,186.14024321590398 L 307.1232876712329,187.66866779533666 L 310.1369863013699,189.25141378421574 L 313.1506849315068,190.88788941855785 L 316.16438356164383,192.57743811199612 L 319.17808219178085,194.3193388537951 L 322.1917808219178,196.11280668367453 L 325.2054794520548,197.95699324298732 L 328.2191780821918,199.8509874017144 L 331.23287671232873,201.79381596064457 L 334.24657534246575,203.78444442801776 L 337.26027397260276,205.8217778698239 L 340.2739726027397,207.90466183286208 L 343.28767123287673,210.03188333957337 L 346.3013698630137,212.20217195358452 L 349.31506849315065,214.4142009148037 L 352.3287671232877,216.66658834283794 L 355.3424657534247,218.95789850741153 L 358.35616438356163,221.28664316439165 L 361.3698630136986,223.65128295594445 L 364.3835616438356,226.05022887326868 L 367.3972602739726,228.4818437802835 L 370.4109589041096,230.94444399656896 L 373.4246575342466,233.43630093778955 L 376.43835616438355,235.95564281176138 L 379.4520547945205,238.50065636825815 L 382.4657534246576,241.06948870058505 L 385.47945205479454,243.6602490968894 L 388.4931506849315,246.27101093911386 L 391.50684931506845,248.899813647445 L 394.5205479452055,251.54466466805331 L 397.5342465753425,254.20354150186535 L 400.54794520547944,256.87439377206636 L 403.56164383561645,259.5551453279766 L 406.5753424657534,262.24369638290807 L 409.5890410958904,264.93792568356025 L 412.60273972602744,267.6356927084812 L 415.6164383561644,270.3348398930799 L 418.63013698630135,273.03319487864604 L 421.6438356164383,275.7285727828028 L 424.6575342465754,278.41877848879216 L 427.67123287671234,281.10160895096794 L 430.6849315068493,283.7748555138521 L 433.6986301369863,286.4363062420932 L 436.71232876712327,289.083748258648 L 439.7260273972603,291.71497008850287 L 442.7397260273973,294.3277640052368 L 445.75342465753425,296.91992837772784 L 448.7671232876712,299.48927001430064 L 451.7808219178082,302.03360650161636 L 454.79452054794524,304.5507685356091 L 457.8082191780822,307.0386022417833 L 460.82191780821915,309.49497148219416 L 463.83561643835617,311.91776014645296 L 466.8493150684931,314.3048744241099 L 469.86301369863014,316.65424505579335 L 472.87671232876716,318.96382956050525 L 475.8904109589041,321.23161443649843 L 478.90410958904107,323.4556173331942 L 481.9178082191781,325.63388919162975 L 484.9315068493151,327.764516350957 L 487.94520547945206,329.84562261856206 L 490.958904109589,331.87537130140544 L 493.972602739726,333.85196719623576 L 496.986301369863,335.7736585363719 L 500.0,337.6387388928004 L 503.013698630137,339.4455490273862 L 506.027397260274,341.1924786960513 L 509.04109589041093,342.8779683998327 L 512.054794520548,344.50051108178917 L 515.068493150685,346.05865376779326 L 518.0821917808219,347.55099914930446 L 521.0958904109589,348.9762071062904 L 524.1095890410959,350.3329961685302 L 527.1232876712329,351.6201449136054 L 530.1369863013699,352.8364932999574 L 533.1506849315069,353.98094393346645 L 536.1643835616438,355.05246326608085 L 539.1780821917807,356.0500827251092 L 542.1917808219177,356.9728997718615 L 545.2054794520548,357.8200788884161 L 548.2191780821918,358.59085249136155 L 551.2328767123288,359.2845217714591 L 554.2465753424658,359.9004574582452 L 557.2602739726027,360.4381005086938 L 560.2739726027398,360.8969627191315 L 563.2876712328767,361.27662725970214 L 566.3013698630136,361.5767491307557 L 569.3150684931506,361.79705554063406 L 572.3287671232877,361.9373462044149 L 575.3424657534247,361.99749356326566 L 578.3561643835617,361.9774429241551 L 581.3698630136986,361.87721251975813 L 584.3835616438356,361.69689348848505 L 587.3972602739726,361.43664977465977 L 590.4109589041096,361.09671794896093 L 593.4246575342465,360.67740694933485 L 596.4383561643835,360.1790977426817 L 599.4520547945206,359.6022429077083 L 602.4657534246575,358.9473661394286 L 605.4794520547946,358.21506167589104 L 608.4931506849315,357.40599364779575 L 611.5068493150685,356.52089535175634 L 614.5205479452055,355.5605684480508 L 617.5342465753425,354.5258820837928 L 620.5479452054794,353.41777194253854 L 623.5616438356165,352.2372392214353 L 626.5753424657535,350.98534953709566 L 629.5890410958904,349.66323176146784 L 632.6027397260274,348.2720767890528 L 635.6164383561644,346.81313623689795 L 638.6301369863013,345.28772107887465 L 641.6438356164384,343.6972002158239 L 644.6575342465754,342.04299898322796 L 647.6712328767123,340.3265975981376 L 650.6849315068494,338.5495295471565 L 653.6986301369863,336.7133799173498 L 656.7123287671233,334.81978367201197 L 659.7260273972603,332.8704238732914 L 662.7397260273972,330.8670298537306 L 665.7534246575342,328.81137533884043 L 668.7671232876712,326.705276522882 L 671.7808219178082,324.55059010008364 L 674.7945205479452,322.34921125357323 L 677.8082191780823,320.10307160435144 L 680.8219178082192,317.81413712268096 L 683.8356164383562,315.48440600430564 L 686.8493150684932,313.1159065139572 L 689.8630136986301,310.7106947986412 L 692.8767123287671,308.27085267323116 L 695.8904109589041,305.7984853809278 L 698.904109589041,303.29571933117126 L 701.9178082191781,300.76469981761784 L 704.9315068493152,298.20758871881606 L 707.945205479452,295.6265621842331 L 710.9589041095891,293.0238083083033 L 713.972602739726,290.4015247951783 L 716.986301369863,287.7619166168713 L 720.0,285.10719366749237 L 723.0136986301369,282.4395684162759 L 726.0273972602739,279.7612535621011 L 729.041095890411,277.07445969220475 L 732.054794520548,274.38139294777454 L 735.068493150685,271.68425269910915 L 738.082191780822,268.9852292330116 L 741.0958904109589,266.28650145507027 L 744.1095890410959,263.5902346094633 L 747.1232876712329,260.89857801889957 L 750.1369863013698,258.2136628472815 L 753.1506849315068,255.53759988765268 L 756.1643835616438,252.8724773779582 L 759.1780821917808,250.2203588471101 L 762.1917808219179,247.58328099381936 L 765.2054794520549,244.9632516006091 L 768.2191780821918,242.36224748538672 L 771.2328767123288,239.78221249290118 L 774.2465753424658,237.22505552837134 L 777.2602739726027,234.69264863551217 L 780.2739726027397,232.18682512113787 L 783.2876712328766,229.70937772846156 L 786.3013698630136,227.26205686115554 L 789.3150684931508,224.84656886017217 L 792.3287671232877,222.4645743352644 L 795.3424657534247,220.11768655307776 L 798.3561643835617,217.8074698836208 L 801.3698630136986,215.5354383068443 L 804.3835616438356,213.3030539809995 L 807.3972602739726,211.11172587435715 L 810.4109589041095,208.96280846180616 L 813.4246575342465,206.85760048776615 L 816.4383561643835,204.7973437967711 L 819.4520547945206,202.7832222330004 L 822.4657534246576,200.81636060995208 L 825.4794520547946,198.8978237513677 L 828.4931506849315,197.02861560443716 L 831.5068493150685,195.20967842621997 L 834.5205479452055,193.44189204413806 L 837.5342465753424,191.72607319130498 L 840.5479452054794,190.0629749173654 L 843.5616438356165,188.4532860754323 L 846.5753424657534,186.897630885617 L 849.5890410958905,185.3965685755578 L 852.6027397260275,183.9505930982582 L 855.6164383561644,182.56013292745854 L 858.6301369863014,181.22555093067103 L 861.6438356164383,179.94714431991224 L 864.6575342465753,178.7251446800833 L 867.6712328767123,177.55971807484855 L 870.6849315068492,176.4509652297752 L 873.6986301369863,175.3989217924036 L 876.7123287671233,174.40355866882862 L 879.7260273972603,173.4647824362811 L 882.7397260273973,172.58243583110584 L 885.7534246575343,171.75629831145022 L 888.7671232876712,170.98608669388034 L 891.7808219178082,170.27145586306335 L 894.7945205479452,169.61199955356005 L 897.8082191780821,169.0072512026943 L 900.8219178082192,168.45668487337605 L 903.8356164383562,167.95971624567426 L 906.8493150684931,167.51570367585884 L 909.8630136986302,167.12394932154314 L 912.8767123287672,166.78370033148894 L 915.8904109589041,166.49415009855454 L 918.9041095890411,166.25443957419554 L 921.917808219178,166.06365864285146 L 924.931506849315,165.92084755448786 L 927.945205479452,165.82499841348624 L 930.958904109589,165.775056722018 L 933.972602739726,165.76992297596564 L 936.986301369863,165.80845431140006 L 940.0,165.88946619955937 L 943.013698630137,166.01173418821975 L 946.027397260274,166.17399568729502 L 949.0410958904109,166.37495179644793 L 952.054794520548,166.6132691724522 L 955.068493150685,166.88758193398996 L 958.0821917808219,167.19649360153676 L 961.0958904109589,167.5385790699347 L 964.1095890410959,167.91238661122463 L 967.1232876712329,168.31643990527027 L 970.1369863013699,168.74924009567428 L 973.1506849315069,169.209267868462 L 976.1643835616438,169.69498555097493 L 979.1780821917808,170.2048392284022 L 982.1917808219179,170.73726087535363 L 985.2054794520548,171.29067049985906 L 988.2191780821918,171.86347829717226 L 991.2328767123287,172.4540868107415 L 994.2465753424657,173.06089309770323 L 997.2602739726028,173.68229089625208 L 1000.2739726027397,174.31667279224052 L 1003.2876712328767,174.96243238236002 L 1006.3013698630137,175.6179664312649 L 1009.3150684931506,176.28167702000712 L 1012.3287671232877,176.95197368316178 L 1015.3424657534247,177.62727553203842 L 1018.3561643835616,178.30601336139182 L 1021.3698630136986,178.98663173706416 L 1024.3835616438355,179.6675910620204 L 1027.3972602739727,180.34736961825854 L 1030.4109589041095,181.02446558211273 L 1033.4246575342468,181.69739901049695 L 1036.4383561643835,182.36471379567433 L 1039.4520547945206,183.02497958617664 L 1042.4657534246576,183.67679367153664 L 1045.4794520547944,184.31878282854734 L 1048.4931506849316,184.9496051268028 L 1051.5068493150684,185.56795169132818 L 1054.5205479452054,186.1725484201594 L 1057.5342465753424,186.76215765478833 L 1060.5479452054797,187.3355798014435 L 1063.5616438356165,187.8916549012422 L 1066.5753424657535,188.4292641473072 L 1069.5890410958905,188.9473313470079 L 1072.6027397260273,189.44482432755285 L 1075.6164383561645,189.92075628322993 L 1078.6301369863013,190.37418706265828 L 1081.6438356164383,190.8042243944957 L 1084.6575342465753,191.2100250501104 L 1087.6712328767123,191.59079594181298 L 1090.6849315068494,191.94579515531393 L 1093.6986301369864,192.27433291515877 L 1096.7123287671234,192.57577248196753 L 1099.7260273972602,192.84953098039534 L 1102.7397260273972,193.09508015680785 L 1105.7534246575342,193.31194706575604 L 1108.7671232876712,193.49971468441754 L 1111.7808219178082,193.6580224542604 L 1114.7945205479452,193.7865667492739 L 1117.8082191780823,193.88510127019936 L 1120.8219178082193,193.95343736428208 L 1123.8356164383563,193.99144427015915 L 1126.849315068493,193.99904928758576 L 1129.86301369863,193.97623787179327 L 1132.876712328767,193.92305365236734 L 1135.890410958904,193.83959837662087 L 1138.9041095890411,193.72603177753206 L 1141.9178082191781,193.58257136640555 L 1144.931506849315,193.40949215050978 L 1147.9452054794522,193.20712627603257 L 1150.9589041095892,192.97586259678383 L 1153.972602739726,192.71614616917202 L 1156.986301369863,192.42847767406454" class="line-cs"/>
    <path d="M 60.0,192.11341276623114 L 63.013698630136986,191.77156135215876 L 66.02739726027397,191.40358679711426 L 69.04109589041096,191.0102050624132 L 72.05479452054794,190.59218377394177 L 75.06849315068493,190.15034122305883 L 78.08219178082192,189.6855453010901 L 81.0958904109589,189.1987123687046 L 84.10958904109589,188.69080606154455 L 87.12328767123287,188.16283603355487 L 90.13698630136986,187.6158566395377 L 93.15068493150685,187.05096555852776 L 96.16438356164383,186.4693023596567 L 99.17808219178082,185.87204701225005 L 102.1917808219178,185.26041834195757 L 105.20547945205479,184.63567243479508 L 108.21917808219177,183.99910099103158 L 111.23287671232876,183.35202963092036 L 114.24657534246575,182.69581615432924 L 117.26027397260273,182.03184875638487 L 120.27397260273972,181.36154420129492 L 123.2876712328767,180.68634595656977 L 126.3013698630137,180.00772228990604 L 129.3150684931507,179.32716433104952 L 132.32876712328766,178.64618410098785 L 135.34246575342465,177.9663125108733 L 138.35616438356163,177.2890973331073 L 141.36986301369865,176.6161011470556 L 144.3835616438356,175.94889926189296 L 147.39726027397262,175.28907761910762 L 150.41095890410958,174.63823067721796 L 153.4246575342466,173.99795928127935 L 156.43835616438355,173.36986851977827 L 159.45205479452056,172.75556557152356 L 162.46575342465752,172.15665754516476 L 165.47945205479454,171.5747493139712 L 168.4931506849315,171.0114413485171 L 171.5068493150685,170.46832754991726 L 174.52054794520546,169.94699308626514 L 177.53424657534248,169.44901223491536 L 180.54794520547944,168.975946233253 L 183.56164383561645,168.5293411405803 L 186.5753424657534,168.11072571373882 L 189.58904109589042,167.72160929907295 L 192.6027397260274,167.3634797433216 L 195.61643835616437,167.03780132600036 L 198.63013698630138,166.7460127158165 L 201.64383561643837,166.48952495363199 L 204.65753424657532,166.26971946445292 L 207.67123287671234,166.08794610089979 L 210.6849315068493,165.94552122056882 L 213.6986301369863,165.84372579966134 L 216.7123287671233,165.78380358521042 L 219.72602739726025,165.76695928819606 L 222.73972602739727,165.79435681978566 L 225.75342465753423,165.8671175728922 L 228.76712328767124,165.9863187511861 L 231.78082191780823,166.152991747643 L 234.7945205479452,166.36812057465033 L 237.8082191780822,166.63264034763836 L 240.82191780821915,166.94743582413355 L 243.83561643835617,167.3133400000745 L 246.84931506849315,167.73113276515494 L 249.86301369863014,168.20153961889548 L 252.87671232876713,168.72523044907405 L 255.8904109589041,169.30281837406505 L 258.9041095890411,169.9348586505738 L 261.9178082191781,170.62184764816232 L 264.93150684931504,171.36422189189602 L 267.94520547945206,172.16235717435268 L 270.95890410958907,173.01656773815625 L 273.972602739726,173.92710553011523 L 276.986301369863,174.89415952795878 L 280.0,175.91785514058336 L 283.013698630137,176.9982536826261 L 286.027397260274,178.13535192410507 L 289.04109589041093,179.3290817157681 L 292.05479452054794,180.57930969070912 L 295.06849315068496,181.88583704271537 L 298.0821917808219,183.24839938172363 L 301.0958904109589,184.66666666666663 L 304.1095890410959,186.14024321590398 L 307.1232876712329,187.66866779533666 L 310.1369863013699,189.25141378421574 L 313.1506849315068,190.88788941855785 L 316.16438356164383,192.57743811199612 L 319.17808219178085,194.3193388537951 L 322.1917808219178,196.11280668367453 L 325.2054794520548,197.95699324298732 L 328.2191780821918,199.8509874017144 L 331.23287671232873,201.79381596064457 L 334.24657534246575,203.78444442801776 L 337.26027397260276,205.8217778698239 L 340.2739726027397,207.90466183286208 L 343.28767123287673,210.03188333957337 L 346.3013698630137,212.20217195358452 L 349.31506849315065,214.4142009148037 L 352.3287671232877,216.66658834283794 L 355.3424657534247,218.95789850741153 L 358.35616438356163,221.28664316439165 L 361.3698630136986,223.65128295594445 L 364.3835616438356,226.05022887326868 L 367.3972602739726,228.4818437802835 L 370.4109589041096,230.94444399656896 L 373.4246575342466,233.43630093778955 L 376.43835616438355,235.95564281176138 L 379.4520547945205,238.50065636825815 L 382.4657534246576,241.06948870058505 L 385.47945205479454,243.6602490968894 L 388.4931506849315,246.27101093911386 L 391.50684931506845,248.899813647445 L 394.5205479452055,251.54466466805331 L 397.5342465753425,254.20354150186535 L 400.54794520547944,256.87439377206636 L 403.56164383561645,259.5551453279766 L 406.5753424657534,262.24369638290807 L 409.5890410958904,264.93792568356025 L 412.60273972602744,267.6356927084812 L 415.6164383561644,270.3348398930799 L 418.63013698630135,273.03319487864604 L 421.6438356164383,275.7285727828028 L 424.6575342465754,282.43522825848686 L 427.67123287671234,289.1333183296086 L 430.6849315068493,295.8194445326114 L 433.6986301369863,302.4902058293012 L 436.71232876712327,309.14220129738555 L 439.7260273972603,315.7720328262376 L 442.7397260273973,322.37630781508574 L 445.75342465753425,328.95164187082304 L 448.7671232876712,335.4946615026328 L 451.7808219178082,342.0020068106277 L 454.79452054794524,348.47033416569946 L 457.8082191780822,354.8963188777944 L 460.82191780821915,361.2766578498328 L 463.83561643835617,367.608072214508 L 466.8493150684931,373.88730995122023 L 469.86301369863014,380.11114848041797 L 472.87671232876716,386.27639723264735 L 475.8904109589041,392.3799001896325 L 478.90410958904107,398.4185383947459 L 481.9178082191781,404.3892324302562 L 484.9315068493151,410.2889448587771 L 487.94520547945206,416.11468262638573 L 490.958904109589,421.8634994249137 L 493.972602739726,427.5324980109628 L 496.986301369863,433.11883247924584 L 500.0,438.6197104879011 L 503.013698630137,444.03239543348207 L 506.027397260274,449.3542085733831 L 509.04109589041093,454.58253109351665 L 512.054794520548,459.7148061191172 L 515.068493150685,464.74854066661766 L 518.0821917808219,469.68130753459945 L 521.0958904109589,474.5107471318937 L 524.1095890410959,479.2345692409748 L 527.1232876712329,483.8505547148661 L 530.1369863013699,488.35655710584433 L 533.1506849315069,492.75050422431127 L 536.1643835616438,497.0303996262769 L 539.1780821917807,501.1943240279783 L 542.1917808219177,505.2404366462363 L 545.2054794520548,509.1669764632451 L 548.2191780821918,512.9722634145598 L 551.2328767123288,516.6546994991464 L 554.2465753424658,520.2127698104341 L 557.2602739726027,523.6450434874115 L 560.2739726027398,526.9501745848788 L 563.2876712328767,530.1269028620817 L 566.3013698630136,533.174054489019 L 569.3150684931506,536.0905426698303 L 572.3287671232877,538.8753681827461 L 575.3424657534247,541.5276198361845 L 578.3561643835617,544.0464748406695 L 581.3698630136986,546.4311990963395 L 584.3835616438356,548.6811473959096 L 587.3972602739726,550.795763543044 L 590.4109589041096,552.7745803861909 L 593.4246575342465,554.6172197680233 L 596.4383561643835,556.3233923907267 L 599.4520547945206,557.8928975974648 L 602.4657534246575,559.3256230704493 L 605.4794520547946,560.6215444461303 L 608.4931506849315,561.7807248481191 L 611.5068493150685,562.8033143385412 L 614.5205479452055,563.689549288612 L 617.5342465753425,564.4397516693163 L 620.5479452054794,565.0543282631536 L 623.5616438356165,565.5337697980132 L 626.5753424657535,565.8786500043104 L 629.5890410958904,566.0896245966137 L 632.6027397260274,566.1674301810687 L 635.6164383561644,566.1128830900068 L 638.6301369863013,565.926878145208 L 641.6438356164384,565.6103873513598 L 644.6575342465754,565.1644585213393 L 647.6712328767123,564.5902138350077 L 650.6849315068494,563.8888483332894 L 653.6986301369863,563.0616283493682 L 656.7123287671233,562.10988987891 L 659.7260273972603,561.035036891278 L 662.7397260273972,559.8385395837728 L 665.7534246575342,558.5219325809953 L 668.7671232876712,557.0868130814788 L 671.7808219178082,555.5348389537994 L 674.7945205479452,553.8677267844241 L 677.8082191780823,552.0872498796069 L 680.8219178082192,550.1952362236893 L 683.8356164383562,548.1935663962086 L 686.8493150684932,546.0841714502556 L 689.8630136986301,543.8690307545673 L 692.8767123287671,541.5501698018722 L 695.8904109589041,539.1296579860389 L 698.904109589041,536.6096063506101 L 701.9178082191781,533.9921653113346 L 704.9315068493152,531.2795223553239 L 707.945205479452,528.4738997194912 L 710.9589041095891,525.5775520509429 L 713.972602739726,522.5927640520077 L 716.986301369863,519.5218481126013 L 720.0,516.3671419326317 L 723.0136986301369,513.1310061371554 L 726.0273972602739,509.81582188699497 L 729.041095890411,506.42398848753396 L 732.054794520548,502.95792099838883 L 735.068493150685,499.42004784666176 L 738.082191780822,495.81280844645926 L 741.0958904109589,492.1386508273519 L 744.1095890410959,488.4000292744314 L 747.1232876712329,484.5994019826021 L 750.1369863013698,480.7392287277188 L 753.1506849315068,476.8219685571594 L 756.1643835616438,472.85007750238975 L 759.1780821917808,468.82600631604413 L 762.1917808219179,464.7521982360145 L 765.2054794520549,460.6310867789976 L 768.2191780821918,456.4650935659119 L 771.2328767123288,452.25662618155167 L 774.2465753424658,448.00807607079776 L 777.2602739726027,443.72181647365755 L 780.2739726027397,439.4002004013529 L 783.2876712328766,435.0455586556199 L 786.3013698630136,430.6601978933306 L 789.3150684931508,426.2463987384849 L 792.3287671232877,421.8064139435573 L 795.3424657534247,417.34246660212597 L 798.3561643835617,412.85674841463606 L 801.3698630136986,408.35141800908985 L 804.3835616438356,403.82859931837993 L 807.3972602739726,399.29038001591096 L 810.4109589041095,394.73881001108316 L 813.4246575342465,390.17590000613285 L 816.4383561643835,385.60362011574716 L 819.4520547945206,381.02389855079366 L 822.4657534246576,376.43862036742064 L 825.4794520547946,371.84962628270677 L 828.4931506849315,367.25871155795096 L 831.5068493150685,362.6676249506111 L 834.5205479452055,358.07806773581297 L 837.5342465753424,353.4916927982665 L 840.5479452054794,348.91010379533583 L 843.5616438356165,344.33485439192333 L 846.5753424657534,339.76744756773695 L 849.5890410958905,335.2093349974227 L 852.6027397260275,330.66191650395285 L 855.6164383561644,326.1265395855684 L 858.6301369863014,321.60449901648633 L 861.6438356164383,317.0970365214894 L 864.6575342465753,312.60534052442557 L 867.6712328767123,308.13054597055634 L 870.6849315068492,303.6737342225938 L 873.6986301369863,299.23593303018805 L 876.7123287671233,294.8181165725277 L 879.7260273972603,290.42120557362875 L 882.7397260273973,286.0460674898002 L 885.7534246575343,281.6935167686851 L 888.7671232876712,277.3643151791874 L 891.7808219178082,273.05917221151225 L 894.7945205479452,268.778745546456 L 897.8082191780821,264.523641593006 L 900.8219178082192,260.2944160932182 L 903.8356164383562,256.0915747932661 L 906.8493150684931,251.91557417947143 L 909.8630136986302,247.76682227804775 L 912.8767123287672,243.64567951721267 L 915.8904109589041,239.5524596502475 L 918.9041095890411,235.48743073801006 L 921.917808219178,231.45081618933523 L 924.931506849315,227.44279585768948 L 927.945205479452,223.46350719237114 L 930.958904109589,219.51304644249421 L 933.972602739726,215.59146991191813 L 936.986301369863,211.6987952632345 L 940.0,207.83500286885726 L 943.013698630137,204.00003720720713 L 946.027397260274,200.19380830193245 L 949.0410958904109,196.41619320205018 L 952.054794520548,192.66703750084764 L 955.068493150685,188.9461568913364 L 958.0821917808219,185.25333875601143 L 961.0958904109589,181.5883437886198 L 964.1095890410959,177.9509076456152 L 967.1232876712329,174.3407426249346 L 970.1369863013699,170.7575393697016 L 973.1506849315069,169.209267868462 L 976.1643835616438,169.69498555097493 L 979.1780821917808,170.2048392284022 L 982.1917808219179,170.73726087535363 L 985.2054794520548,171.29067049985906 L 988.2191780821918,171.86347829717226 L 991.2328767123287,172.4540868107415 L 994.2465753424657,173.06089309770323 L 997.2602739726028,173.68229089625208 L 1000.2739726027397,174.31667279224052 L 1003.2876712328767,174.96243238236002 L 1006.3013698630137,175.6179664312649 L 1009.3150684931506,176.28167702000712 L 1012.3287671232877,176.95197368316178 L 1015.3424657534247,177.62727553203842 L 1018.3561643835616,178.30601336139182 L 1021.3698630136986,178.98663173706416 L 1024.3835616438355,179.6675910620204 L 1027.3972602739727,180.34736961825854 L 1030.4109589041095,181.02446558211273 L 1033.4246575342468,181.69739901049695 L 1036.4383561643835,182.36471379567433 L 1039.4520547945206,183.02497958617664 L 1042.4657534246576,183.67679367153664 L 1045.4794520547944,184.31878282854734 L 1048.4931506849316,184.9496051268028 L 1051.5068493150684,185.56795169132818 L 1054.5205479452054,186.1725484201594 L 1057.5342465753424,186.76215765478833 L 1060.5479452054797,187.3355798014435 L 1063.5616438356165,187.8916549012422 L 1066.5753424657535,188.4292641473072 L 1069.5890410958905,188.9473313470079 L 1072.6027397260273,189.44482432755285 L 1075.6164383561645,189.92075628322993 L 1078.6301369863013,190.37418706265828 L 1081.6438356164383,190.8042243944957 L 1084.6575342465753,191.2100250501104 L 1087.6712328767123,191.59079594181298 L 1090.6849315068494,191.94579515531393 L 1093.6986301369864,192.27433291515877 L 1096.7123287671234,192.57577248196753 L 1099.7260273972602,192.84953098039534 L 1102.7397260273972,193.09508015680785 L 1105.7534246575342,193.31194706575604 L 1108.7671232876712,193.49971468441754 L 1111.7808219178082,193.6580224542604 L 1114.7945205479452,193.7865667492739 L 1117.8082191780823,193.88510127019936 L 1120.8219178082193,193.95343736428208 L 1123.8356164383563,193.99144427015915 L 1126.849315068493,193.99904928758576 L 1129.86301369863,193.97623787179327 L 1132.876712328767,193.92305365236734 L 1135.890410958904,193.83959837662087 L 1138.9041095890411,193.72603177753206 L 1141.9178082191781,193.58257136640555 L 1144.931506849315,193.40949215050978 L 1147.9452054794522,193.20712627603257 L 1150.9589041095892,192.97586259678383 L 1153.972602739726,192.71614616917202 L 1156.986301369863,192.42847767406454" class="line-cb"/>
    <path d="M 60.0,192.11341276623114 L 63.013698630136986,191.77156135215876 L 66.02739726027397,191.40358679711426 L 69.04109589041096,191.0102050624132 L 72.05479452054794,190.59218377394177 L 75.06849315068493,190.15034122305883 L 78.08219178082192,189.6855453010901 L 81.0958904109589,189.1987123687046 L 84.10958904109589,188.69080606154455 L 87.12328767123287,188.16283603355487 L 90.13698630136986,187.6158566395377 L 93.15068493150685,187.05096555852776 L 96.16438356164383,186.4693023596567 L 99.17808219178082,185.87204701225005 L 102.1917808219178,185.26041834195757 L 105.20547945205479,184.63567243479508 L 108.21917808219177,183.99910099103158 L 111.23287671232876,183.35202963092036 L 114.24657534246575,182.69581615432924 L 117.26027397260273,182.03184875638487 L 120.27397260273972,181.36154420129492 L 123.2876712328767,180.68634595656977 L 126.3013698630137,180.00772228990604 L 129.3150684931507,179.32716433104952 L 132.32876712328766,178.64618410098785 L 135.34246575342465,177.9663125108733 L 138.35616438356163,177.2890973331073 L 141.36986301369865,176.6161011470556 L 144.3835616438356,175.94889926189296 L 147.39726027397262,175.28907761910762 L 150.41095890410958,174.63823067721796 L 153.4246575342466,173.99795928127935 L 156.43835616438355,173.36986851977827 L 159.45205479452056,172.75556557152356 L 162.46575342465752,172.15665754516476 L 165.47945205479454,171.5747493139712 L 168.4931506849315,171.0114413485171 L 171.5068493150685,170.46832754991726 L 174.52054794520546,169.94699308626514 L 177.53424657534248,169.44901223491536 L 180.54794520547944,168.975946233253 L 183.56164383561645,168.5293411405803 L 186.5753424657534,168.11072571373882 L 189.58904109589042,167.72160929907295 L 192.6027397260274,167.3634797433216 L 195.61643835616437,167.03780132600036 L 198.63013698630138,166.7460127158165 L 201.64383561643837,166.48952495363199 L 204.65753424657532,166.26971946445292 L 207.67123287671234,166.08794610089979 L 210.6849315068493,165.94552122056882 L 213.6986301369863,165.84372579966134 L 216.7123287671233,165.78380358521042 L 219.72602739726025,165.76695928819606 L 222.73972602739727,165.79435681978566 L 225.75342465753423,165.8671175728922 L 228.76712328767124,165.9863187511861 L 231.78082191780823,166.152991747643 L 234.7945205479452,166.36812057465033 L 237.8082191780822,166.63264034763836 L 240.82191780821915,166.94743582413355 L 243.83561643835617,167.3133400000745 L 246.84931506849315,167.73113276515494 L 249.86301369863014,168.20153961889548 L 252.87671232876713,168.72523044907405 L 255.8904109589041,169.30281837406505 L 258.9041095890411,169.9348586505738 L 261.9178082191781,170.62184764816232 L 264.93150684931504,171.36422189189602 L 267.94520547945206,172.16235717435268 L 270.95890410958907,173.01656773815625 L 273.972602739726,173.92710553011523 L 276.986301369863,174.89415952795878 L 280.0,175.91785514058336 L 283.013698630137,176.9982536826261 L 286.027397260274,178.13535192410507 L 289.04109589041093,179.3290817157681 L 292.05479452054794,180.57930969070912 L 295.06849315068496,181.88583704271537 L 298.0821917808219,183.24839938172363 L 301.0958904109589,184.66666666666663 L 304.1095890410959,186.14024321590398 L 307.1232876712329,187.66866779533666 L 310.1369863013699,189.25141378421574 L 313.1506849315068,190.88788941855785 L 316.16438356164383,192.57743811199612 L 319.17808219178085,194.3193388537951 L 322.1917808219178,196.11280668367453 L 325.2054794520548,197.95699324298732 L 328.2191780821918,199.8509874017144 L 331.23287671232873,201.79381596064457 L 334.24657534246575,203.78444442801776 L 337.26027397260276,205.8217778698239 L 340.2739726027397,207.90466183286208 L 343.28767123287673,210.03188333957337 L 346.3013698630137,212.20217195358452 L 349.31506849315065,214.4142009148037 L 352.3287671232877,216.66658834283794 L 355.3424657534247,218.95789850741153 L 358.35616438356163,221.28664316439165 L 361.3698630136986,223.65128295594445 L 364.3835616438356,226.05022887326868 L 367.3972602739726,228.4818437802835 L 370.4109589041096,230.94444399656896 L 373.4246575342466,233.43630093778955 L 376.43835616438355,235.95564281176138 L 379.4520547945205,238.50065636825815 L 382.4657534246576,241.06948870058505 L 385.47945205479454,243.6602490968894 L 388.4931506849315,246.27101093911386 L 391.50684931506845,248.899813647445 L 394.5205479452055,251.54466466805331 L 397.5342465753425,254.20354150186535 L 400.54794520547944,256.87439377206636 L 403.56164383561645,259.5551453279766 L 406.5753424657534,262.24369638290807 L 409.5890410958904,264.93792568356025 L 412.60273972602744,267.6356927084812 L 415.6164383561644,270.3348398930799 L 418.63013698630135,273.03319487864604 L 421.6438356164383,275.7285727828028 L 424.6575342465754,282.43522825848686 L 427.67123287671234,289.1333183296086 L 430.6849315068493,295.8194445326114 L 433.6986301369863,302.4902058293012 L 436.71232876712327,309.14220129738555 L 439.7260273972603,315.7720328262376 L 442.7397260273973,322.37630781508574 L 445.75342465753425,328.95164187082304 L 448.7671232876712,335.4946615026328 L 451.7808219178082,342.0020068106277 L 454.79452054794524,348.47033416569946 L 457.8082191780822,354.8963188777944 L 460.82191780821915,361.2766578498328 L 463.83561643835617,367.608072214508 L 466.8493150684931,373.88730995122023 L 469.86301369863014,380.11114848041797 L 472.87671232876716,386.27639723264735 L 475.8904109589041,392.3799001896325 L 478.90410958904107,398.4185383947459 L 481.9178082191781,404.3892324302562 L 484.9315068493151,410.2889448587771 L 487.94520547945206,416.11468262638573 L 490.958904109589,421.8634994249137 L 493.972602739726,427.5324980109628 L 496.986301369863,433.11883247924584 L 500.0,438.6197104879011 L 503.013698630137,444.03239543348207 L 506.027397260274,449.3542085733831 L 509.04109589041093,454.58253109351665 L 512.054794520548,459.7148061191172 L 515.068493150685,464.74854066661766 L 518.0821917808219,469.68130753459945 L 521.0958904109589,474.5107471318937 L 524.1095890410959,479.2345692409748 L 527.1232876712329,483.8505547148661 L 530.1369863013699,488.35655710584433 L 533.1506849315069,492.75050422431127 L 536.1643835616438,497.0303996262769 L 539.1780821917807,501.1943240279783 L 542.1917808219177,505.2404366462363 L 545.2054794520548,509.1669764632451 L 548.2191780821918,512.9722634145598 L 551.2328767123288,516.6546994991464 L 554.2465753424658,520.2127698104341 L 557.2602739726027,523.6450434874115 L 560.2739726027398,526.9501745848788 L 563.2876712328767,530.1269028620817 L 566.3013698630136,533.174054489019 L 569.3150684931506,536.0905426698303 L 572.3287671232877,538.8753681827461 L 575.3424657534247,541.5276198361845 L 578.3561643835617,544.0464748406695 L 581.3698630136986,546.4311990963395 L 584.3835616438356,548.6811473959096 L 587.3972602739726,550.795763543044 L 590.4109589041096,552.7745803861909 L 593.4246575342465,554.6172197680233 L 596.4383561643835,556.3233923907267 L 599.4520547945206,557.8928975974648 L 602.4657534246575,559.3256230704493 L 605.4794520547946,560.6215444461303 L 608.4931506849315,561.7807248481191 L 611.5068493150685,562.8033143385412 L 614.5205479452055,563.689549288612 L 617.5342465753425,564.4397516693163 L 620.5479452054794,565.0543282631536 L 623.5616438356165,565.5337697980132 L 626.5753424657535,565.8786500043104 L 629.5890410958904,566.0896245966137 L 632.6027397260274,566.1674301810687 L 635.6164383561644,566.1128830900068 L 638.6301369863013,565.926878145208 L 641.6438356164384,565.6103873513598 L 644.6575342465754,565.1644585213393 L 647.6712328767123,564.5902138350077 L 650.6849315068494,563.8888483332894 L 653.6986301369863,563.0616283493682 L 656.7123287671233,562.10988987891 L 659.7260273972603,561.035036891278 L 662.7397260273972,559.8385395837728 L 665.7534246575342,558.5219325809953 L 668.7671232876712,557.0868130814788 L 671.7808219178082,555.5348389537994 L 674.7945205479452,553.8677267844241 L 677.8082191780823,552.0872498796069 L 680.8219178082192,550.1952362236893 L 683.8356164383562,548.1935663962086 L 686.8493150684932,546.0841714502556 L 689.8630136986301,543.8690307545673 L 692.8767123287671,541.5501698018722 L 695.8904109589041,539.1296579860389 L 698.904109589041,536.6096063506101 L 701.9178082191781,533.9921653113346 L 704.9315068493152,531.2795223553239 L 707.945205479452,528.4738997194912 L 710.9589041095891,525.5775520509429 L 713.972602739726,522.5927640520077 L 716.986301369863,519.5218481126013 L 720.0,516.3671419326317 L 723.0136986301369,513.1310061371554 L 726.0273972602739,509.81582188699497 L 729.041095890411,506.42398848753396 L 732.054794520548,502.95792099838883 L 735.068493150685,499.42004784666176 L 738.082191780822,495.81280844645926 L 741.0958904109589,492.1386508273519 L 744.1095890410959,488.4000292744314 L 747.1232876712329,484.5994019826021 L 750.1369863013698,480.7392287277188 L 753.1506849315068,476.8219685571594 L 756.1643835616438,472.85007750238975 L 759.1780821917808,468.82600631604413 L 762.1917808219179,464.7521982360145 L 765.2054794520549,460.6310867789976 L 768.2191780821918,456.4650935659119 L 771.2328767123288,452.25662618155167 L 774.2465753424658,448.00807607079776 L 777.2602739726027,443.72181647365755 L 780.2739726027397,439.4002004013529 L 783.2876712328766,435.0455586556199 L 786.3013698630136,430.6601978933306 L 789.3150684931508,426.2463987384849 L 792.3287671232877,421.8064139435573 L 795.3424657534247,417.34246660212597 L 798.3561643835617,412.85674841463606 L 801.3698630136986,408.35141800908985 L 804.3835616438356,403.82859931837993 L 807.3972602739726,399.29038001591096 L 810.4109589041095,394.73881001108316 L 813.4246575342465,390.17590000613285 L 816.4383561643835,385.60362011574716 L 819.4520547945206,381.02389855079366 L 822.4657534246576,376.43862036742064 L 825.4794520547946,371.84962628270677 L 828.4931506849315,367.25871155795096 L 831.5068493150685,362.6676249506111 L 834.5205479452055,358.07806773581297 L 837.5342465753424,353.4916927982665 L 840.5479452054794,348.91010379533583 L 843.5616438356165,344.33485439192333 L 846.5753424657534,339.76744756773695 L 849.5890410958905,335.2093349974227 L 852.6027397260275,330.66191650395285 L 855.6164383561644,326.1265395855684 L 858.6301369863014,321.60449901648633 L 861.6438356164383,317.0970365214894 L 864.6575342465753,312.60534052442557 L 867.6712328767123,308.13054597055634 L 870.6849315068492,303.6737342225938 L 873.6986301369863,299.23593303018805 L 876.7123287671233,294.8181165725277 L 879.7260273972603,290.42120557362875 L 882.7397260273973,286.0460674898002 L 885.7534246575343,281.6935167686851 L 888.7671232876712,277.3643151791874 L 891.7808219178082,273.05917221151225 L 894.7945205479452,268.778745546456 L 897.8082191780821,264.523641593006 L 900.8219178082192,260.2944160932182 L 903.8356164383562,256.0915747932661 L 906.8493150684931,251.91557417947143 L 909.8630136986302,247.76682227804775 L 912.8767123287672,243.64567951721267 L 915.8904109589041,239.5524596502475 L 918.9041095890411,235.48743073801006 L 921.917808219178,231.45081618933523 L 924.931506849315,227.44279585768948 L 927.945205479452,223.46350719237114 L 930.958904109589,219.51304644249421 L 933.972602739726,215.59146991191813 L 936.986301369863,211.6987952632345 L 940.0,207.83500286885726 L 943.013698630137,204.00003720720713 L 946.027397260274,200.19380830193245 L 949.0410958904109,196.41619320205018 L 952.054794520548,192.66703750084764 L 955.068493150685,188.9461568913364 L 958.0821917808219,185.25333875601143 L 961.0958904109589,181.5883437886198 L 964.1095890410959,177.9509076456152 L 967.1232876712329,174.3407426249346 L 970.1369863013699,170.7575393697016 L 973.1506849315069,169.209267868462 L 976.1643835616438,169.69498555097493 L 979.1780821917808,170.2048392284022 L 982.1917808219179,170.73726087535363 L 985.2054794520548,171.29067049985906 L 988.2191780821918,171.86347829717226 L 991.2328767123287,172.4540868107415 L 994.2465753424657,173.06089309770323 L 997.2602739726028,173.68229089625208 L 1000.2739726027397,174.31667279224052 L 1003.2876712328767,174.96243238236002 L 1006.3013698630137,175.6179664312649 L 1009.3150684931506,176.28167702000712 L 1012.3287671232877,176.95197368316178 L 1015.3424657534247,177.62727553203842 L 1018.3561643835616,178.30601336139182 L 1021.3698630136986,178.98663173706416 L 1024.3835616438355,179.6675910620204 L 1027.3972602739727,180.34736961825854 L 1030.4109589041095,181.02446558211273 L 1033.4246575342468,181.69739901049695 L 1036.4383561643835,182.36471379567433 L 1039.4520547945206,183.02497958617664 L 1042.4657534246576,183.67679367153664 L 1045.4794520547944,184.31878282854734 L 1048.4931506849316,184.9496051268028 L 1051.5068493150684,185.56795169132818 L 1054.5205479452054,186.1725484201594 L 1057.5342465753424,186.76215765478833 L 1060.5479452054797,187.3355798014435 L 1063.5616438356165,187.8916549012422 L 1066.5753424657535,188.4292641473072 L 1069.5890410958905,188.9473313470079 L 1072.6027397260273,189.44482432755285 L 1075.6164383561645,189.92075628322993 L 1078.6301369863013,190.37418706265828 L 1081.6438356164383,190.8042243944957 L 1084.6575342465753,191.2100250501104 L 1087.6712328767123,191.59079594181298 L 1090.6849315068494,191.94579515531393 L 1093.6986301369864,192.27433291515877 L 1096.7123287671234,192.57577248196753 L 1099.7260273972602,192.84953098039534 L 1102.7397260273972,193.09508015680785 L 1105.7534246575342,193.31194706575604 L 1108.7671232876712,193.49971468441754 L 1111.7808219178082,193.6580224542604 L 1114.7945205479452,193.7865667492739 L 1117.8082191780823,193.88510127019936 L 1120.8219178082193,193.95343736428208 L 1123.8356164383563,193.99144427015915 L 1126.849315068493,193.99904928758576 L 1129.86301369863,193.97623787179327 L 1132.876712328767,193.92305365236734 L 1135.890410958904,193.83959837662087 L 1138.9041095890411,193.72603177753206 L 1141.9178082191781,193.58257136640555 L 1144.931506849315,193.40949215050978 L 1147.9452054794522,193.20712627603257 L 1150.9589041095892,192.97586259678383 L 1153.972602739726,192.71614616917202 L 1156.986301369863,192.42847767406454" class="line-min"/>

    <!-- Legend -->
    <rect x="990" y="45" width="190" height="110"
          fill="white" stroke="black" stroke-width="1"/>
    <line x1="1000" y1="60" x2="1030" y2="60" class="line-cs"/>
    <text x="1040" y="64" class="legend">Surface (Cs)</text>

    <line x1="1000" y1="80" x2="1030" y2="80" class="line-cb"/>
    <text x="1040" y="84" class="legend">Bottom (Cb)</text>

    <line x1="1000" y1="100" x2="1030" y2="100" class="line-sat"/>
    <text x="1040" y="104" class="legend">Saturation</text>

    <line x1="1000" y1="120" x2="1030" y2="120" class="line-min"/>
    <text x="1040" y="124" class="legend">Profile Min</text>

    <line x1="1000" y1="140" x2="1030" y2="140" class="hypoxic"/>
    <text x="1040" y="144" class="legend">Hypoxic (2 mg/L)</text>
</svg>